<?xml version="1.0" encoding="utf-8"?>
<!-- Generator: Adobe Illustrator 26.0.0, SVG Export Plug-In . SVG Version: 6.00 Build 0)  -->
<svg version="1.1" id="Capa_1" xmlns="http://www.w3.org/2000/svg" xmlns:xlink="http://www.w3.org/1999/xlink" x="0px" y="0px"
	 viewBox="0 0 19.2 21.8" style="enable-background:new 0 0 19.2 21.8;" xml:space="preserve">
<style type="text/css">
	.st0{fill:#EE9E0D;}
	.st1{fill:#F4D914;}
</style>
<path d="M2.3,2.8h14.6c0.5,0,0.9,0.4,0.9,0.9v14.6c0,0.5-0.4,0.9-0.9,0.9H2.3c-0.5,0-0.9-0.4-0.9-0.9V3.7C1.4,3.2,1.8,2.8,2.3,2.8z"
	/>
<path class="st0" d="M14,9.7v2.1c0,0.1-0.1,0.1-0.1,0.1H9.1C9,11.9,9,11.9,9,11.8V9.7C9,9.6,9,9.5,9.1,9.5h4.8C14,9.5,14,9.6,14,9.7
	z"/>
<path class="st0" d="M13.9,6.3H9.1C9,6.3,9,6.2,9,6.2l0,0V4C9,3.9,9,3.9,9.1,3.9l0,0h4.6"/>
<path class="st0" d="M3.8,3.9h1.8c0.2,0,0.3,0.1,0.3,0.3v13c0,0.2-0.1,0.3-0.3,0.3H3.8c-0.2,0-0.3-0.1-0.3-0.3v-13
	C3.5,4,3.6,3.9,3.8,3.9z"/>
<path class="st1" d="M9.3,3.9h1.8c0.2,0,0.3,0.1,0.3,0.3v13c0,0.2-0.1,0.3-0.3,0.3H9.3c-0.2,0-0.3-0.1-0.3-0.3v-13
	C9,4,9.1,3.9,9.3,3.9z"/>
<path class="st0" d="M13.9,6.3"/>
<path class="st0" d="M13.7,3.9h2.4c0.1,0,0.2,0.1,0.2,0.2v7.6c0,0.1-0.1,0.2-0.2,0.2c0,0,0,0,0,0h-2.4"/>
<path class="st1" d="M14,15.3v2.1c0,0.1-0.1,0.1-0.1,0.1H9.1C9,17.6,9,17.5,9,17.4v-2.1c0-0.1,0.1-0.1,0.1-0.1h4.8
	C14,15.2,14,15.2,14,15.3z"/>
<path class="st0" d="M3.6,11.8V9.7c0-0.1,0.1-0.1,0.1-0.1h4.4c0.1,0,0.1,0.1,0.1,0.1v2.1c0,0.1-0.1,0.1-0.1,0.1H3.8
	C3.7,11.9,3.6,11.9,3.6,11.8z"/>
</svg>
